#!OML:ASF F:\VICON\USERDATA\INSTALL\rory3\rory3.ASF
:FULLY-SPECIFIED
:DEGREES
38
root -1.0549981524375753 18.466486867338997 7.219929038920438 4.9477677013638335 -3.370125473717347 3.6238730676421387
lfemur 6.613362753437084 -2.903444234860771 -29.6094054494171
ltibia 36.09762050680213
lfoot 30.12195175794405 -19.681668730696153
ltoes -14.174318115338133
rfemur -37.24305608844545 2.97336541929472 22.81876028953828
rtibia 32.407921208432036
rfoot 3.9061217644818296 -7.077573298105167
rtoes -10.281117585703296
lowerback 1.0 -0.8177627765782304 -3.1572814906878537
upperback -0.8638659458435205 -1.825283853837791 0.6904519795608114
thorax -8.933023845251945 -0.8067410910040131 2.642312307824655
lowerneck -19.268638115716858 -2.766821463566608 -2.0989148917346063
upperneck 16.058473623550416 -3.5853466541756864 2.786655793296568
head 8.208577181787286 -1.593087464729342 0.7253050933912365
lclavicle -3.0519210079000924e-15 -2.3274744488742737e-15
lhumerus -42.08027764984632 -12.473156864892085 92.12386542023881
lradius 116.49623783553959
lwrist 34.46617503147939
lhand -29.30663731578682 -0.49810536666982763
lfingers 7.12502
lthumb -2.357304444646506 30.381918201892734
rclavicle -2.573512862077693e-15 -2.0544160347895827e-15
rhumerus -62.157866145997964 6.248783400213359 -93.5312221960049
rradius 106.87790907073101
rwrist -18.067613092241164
rhand -18.409806892071547 1.0
rfingers 7.12502
rthumb 8.258389576717112 12.342757799841472
39
root -1.0372476394791976 18.33226924185354 8.039568060552204 4.3882191365623155 -3.8892673203697186 3.9651884538425257
lfemur 5.337045626300316 -2.14636075339899 -29.525402971265002
ltibia 42.346724459187456
lfoot 28.90116481422966 -20.705041741986506
ltoes -10.522098207651695
rfemur -35.834275155626656 3.016519955001863 22.976333065970845
rtibia 30.642733516910795
rfoot 4.06119558890275 -7.330724353233171
rtoes -11.643043331486103
lowerback 1.0 -0.5952678530627381 -3.1010263792648955
upperback -0.7056484818112706 -1.5353438588722748 0.6547795045356344
thorax -8.982310603740087 -0.6825930771189992 2.4922311403762967
lowerneck -18.9471402892749 -2.811819421545237 -2.192973648105034
upperneck 15.861640839203057 -3.599045336978393 2.6922727147118537
head 8.135316885624931 -1.6164560526276188 0.7038337508642064
lclavicle -1.9086347235769552e-15 -7.88677666508708e-16
lhumerus -42.36724926508349 -12.441311384841132 92.25234808532969
lradius 111.53991343205733
lwrist 33.982032672099834
lhand -29.276661448508243 0.19809908024909895
lfingers 7.12502
lthumb -2.479408111846308 30.959094859075186
rclavicle -1.6018451022759391e-15 -5.498834653885628e-16
rhumerus -61.6241859304012 5.293454631851411 -93.13658347990857
rradius 106.637415530601
rwrist -18.176714592724547
rhand -18.307752042782976 1.0
rfingers 7.12502
rthumb 8.040319383207198 12.290313028253284
40
root -1.0076458677832643 18.16026291942646 9.151897716086875 3.6551915940837145 -3.275884576227935 4.108004929131956
lfemur 3.7497066218473947 -1.5626182797680355 -28.845716627195603
ltibia 49.92280069697416
lfoot 27.219403221556863 -21.322435814096565
ltoes -5.391323938936976
rfemur -34.15868154504451 2.3266143588775146 23.126110546734267
rtibia 31.844026717112087
rfoot 3.1346902856801933 -6.6362969004299615
rtoes -11.111926628295885
lowerback 1.0 -0.6293633443057044 -2.8905594401519825
upperback -0.4719752036204278 -1.423048292536695 0.6786384829731915
thorax -8.945820379868563 -0.607574683437893 2.431345490537491
lowerneck -18.762326275979998 -2.8425583053769405 -2.2275993120599864
upperneck 15.600148231861757 -3.590644788086634 2.576473854501369
head 8.02429833466456 -1.6179956449714257 0.6749471112999545
lclavicle -2.8176305743340818e-15 -1.9852572047725757e-15
lhumerus -42.88051040452405 -12.094823249509567 92.37167301327402
lradius 106.06981190101655
lwrist 33.93809926782497
lhand -29.339541629652583 1.3188841806259037
lfingers 7.12502
lthumb -2.9027531868078222 30.95199142713658
rclavicle -2.3354279842303985e-15 -1.6541740698556462e-15
rhumerus -60.7276181733951 4.490448166224435 -92.81956075317802
rradius 106.1262018523039
rwrist -18.763343921014215
rhand -18.29708090057928 1.0
rfingers 7.12502
rthumb 8.070290007644857 12.063560834812467
41
root -1.0418236002808885 17.905156282138833 8.407058512166463 2.9798381588405047 -3.1630469888085457 3.157705688870194
lfemur 1.7733660767389878 -0.2809384979337266 -26.758467854931254
ltibia 58.63167771944633
lfoot 25.706904105719985 -20.167429812946878
ltoes -2.6913793254989606
rfemur -32.87790770429296 2.2752502030751556 24.19874064405466
rtibia 35.69850549838282
rfoot 0.6488670129451286 -5.5180983727224495
rtoes -7.984270353474811
lowerback 1.0 -0.5046887986571732 -2.0865994399825123
upperback -0.17235588766137494 -1.1662131841127201 0.8079999829758353
thorax -8.876835879695157 -0.4487880443318899 2.3936491837455267
lowerneck -18.88390380504238 -2.897085825571139 -2.2150843778828424
upperneck 15.371902251007997 -3.614917872908828 2.4636177321688226
head 7.939808444418004 -1.6384857434857432 0.6398583545919787
lclavicle -3.0850410727087913e-15 -1.866568616996825e-15
lhumerus -43.67545827835436 -11.620624424691263 92.53341744389725
lradius 100.73905008990582
lwrist 34.31718571566669
lhand -29.55275102341381 2.0795982322084687
lfingers 7.12502
lthumb -3.123602915391171 31.880654629161597
rclavicle -1.9954543441985427e-15 -9.726551606072844e-16
rhumerus -59.46899701601141 3.7874824494582846 -92.64041094010526
rradius 105.37358751334753
rwrist -19.039429056655283
rhand -18.414786365773097 1.0
rfingers 7.12502
rthumb 8.022068627770649 11.464317513455693
42
root -1.057911314820148 17.60179469148185 8.412277639204998 2.3000715570864267 -4.677543344929645 2.020814237143823
lfemur -0.8574040015772546 2.463633067415679 -23.759182078150552
ltibia 68.13300518472433
lfoot 23.341636738804127 -17.69826664283037
ltoes -2.1905540030618447
rfemur -32.048267258685485 3.534624365693469 25.83234348203354
rtibia 41.102580964357294
rfoot -3.0896695639211442 -4.944153567232408
rtoes -3.1994218764905358
lowerback 1.0 -0.0044462813252353905 -1.4642033304475999
upperback 0.15670370460877292 -0.3763352133721434 1.1120057322212635
thorax -8.889147749257216 -0.09810330710718951 2.127392461661951
lowerneck -19.081434089738273 -2.9355311131964608 -2.0986861084294834
upperneck 15.195608402137893 -3.6379824514130217 2.3281640122583376
head 7.907906124617364 -1.6601600838667288 0.5862393055004861
lclavicle -2.999323977449011e-15 -1.7188966588000284e-15
lhumerus -44.85925671876423 -10.978689669328954 92.80978684480671
lradius 96.15530912545408
lwrist 34.76173528640032
lhand -29.802566009552578 3.207284160094205
lfingers 7.12502
lthumb -3.272462711479061 33.2634503417539
rclavicle -1.9243531514203867e-15 -8.568917927148365e-16
rhumerus -57.92443074602979 3.3284324555545464 -92.56775539038267
rradius 104.56295275591414
rwrist -18.719673540957707
rhand -18.595062476218974 1.0
rfingers 7.12502
rthumb 8.028855226067785 11.002064636661677
